<svg width="24" height="22" viewBox="0 0 24 22" fill="none" xmlns="http://www.w3.org/2000/svg">
<path fill-rule="evenodd" clip-rule="evenodd" d="M19.3333 13.6667C19.3333 13.2246 19.5089 12.8007 19.8215 12.4882C20.134 12.1756 20.558 12 21 12C21.442 12 21.866 12.1756 22.1785 12.4882C22.4911 12.8007 22.6667 13.2246 22.6667 13.6667C22.6667 14.1087 22.4911 14.5326 22.1785 14.8452C21.866 15.1577 21.442 15.3333 21 15.3333C20.558 15.3333 20.134 15.1577 19.8215 14.8452C19.5089 14.5326 19.3333 14.1087 19.3333 13.6667ZM8.66667 17.6667H15.3333V16H8.66667V17.6667ZM3 15C2.55797 15 2.13405 14.8244 1.82149 14.5118C1.50893 14.1993 1.33333 13.7754 1.33333 13.3333C1.33333 12.8913 1.50893 12.4674 1.82149 12.1548C2.13405 11.8423 2.55797 11.6667 3 11.6667C3.44203 11.6667 3.86595 11.8423 4.17851 12.1548C4.49107 12.4674 4.66667 12.8913 4.66667 13.3333C4.66667 13.7754 4.49107 14.1993 4.17851 14.5118C3.86595 14.8244 3.44203 15 3 15ZM6.26667 3.12667C6.36 2.85333 6.61333 2.66667 6.89333 2.66667H17.1C17.3867 2.66667 17.64 2.85333 17.7533 3.18667L19.82 8.66667H4.18L6.26667 3.12667ZM24 8.198V7.66667C24 7.40145 23.8946 7.1471 23.7071 6.95956C23.5196 6.77202 23.2652 6.66667 23 6.66667H21.9133L20.2667 2.3C20.0491 1.63279 19.6265 1.05126 19.0591 0.638272C18.4917 0.225288 17.8084 0.00192133 17.1067 0H6.88667C5.44667 0.00666667 4.18 0.933333 3.75333 2.24667L2.08667 6.66667H1C0.734784 6.66667 0.480429 6.77202 0.292893 6.95956C0.105357 7.1471 0 7.40145 0 7.66667V8.198C5.58925e-05 8.42553 0.0777023 8.64624 0.220119 8.82368C0.362537 9.00113 0.561209 9.1247 0.783333 9.174L1.08 9.24L0.566667 10.4067C0.199171 11.236 0.00845414 12.1329 0.00666682 13.04L0 20.92C0 21.5133 0.486667 22 1.08 22H2.92C3.51333 22 4 21.5133 4 20.92V19.6667H3V18.6667H21V19.6667H20V20.92C20 21.5133 20.4867 22 21.08 22H22.92C23.5133 22 24 21.5133 24 20.92V13.0533C24 12.14 23.8067 11.2333 23.4333 10.4L22.92 9.24L23.2167 9.174C23.4388 9.1247 23.6375 9.00113 23.7799 8.82368C23.9223 8.64624 23.9999 8.42553 24 8.198Z" fill="white"/>
</svg>
