<svg width="27" height="28" viewBox="0 0 27 28" fill="none" xmlns="http://www.w3.org/2000/svg">
<path d="M25.3744 20.3049C26.5455 18.262 27.1617 15.9483 27.1617 13.5936V13.5774C27.1648 11.2034 26.5412 8.87057 25.354 6.81473C25.3514 6.80843 25.3483 6.80232 25.3448 6.79644C25.3399 6.7873 25.3336 6.77887 25.328 6.76973C24.1392 4.72867 22.4421 3.03032 20.4019 1.84012C20.3927 1.83379 20.3836 1.82746 20.3738 1.82184L20.3548 1.81199C18.3045 0.629912 15.9806 0.00521344 13.614 3.24906e-05C11.2474 -0.00514845 8.92069 0.609369 6.86531 1.78246C6.84116 1.79242 6.81767 1.80393 6.795 1.81691C6.77037 1.83128 6.74686 1.8475 6.72469 1.86543C4.7295 3.04055 3.06545 4.70315 1.88859 6.6973C1.86367 6.72516 1.84176 6.75556 1.8232 6.78801C1.8053 6.81882 1.79046 6.85132 1.77891 6.88504C0.636679 8.8908 0.0280644 11.156 0.0112504 13.4642C-0.00375015 13.5389 -0.00375015 13.6159 0.0112504 13.6906C0.028498 15.9905 0.633604 18.2478 1.76906 20.2479C1.7935 20.3325 1.83842 20.4098 1.89984 20.4729C3.06716 22.4441 4.7113 24.0902 6.68109 25.2598C6.71318 25.2911 6.74909 25.3183 6.78797 25.3407C6.82528 25.362 6.86491 25.379 6.90609 25.3913C8.90646 26.5262 11.1636 27.1313 13.4634 27.1491C13.5384 27.1641 13.6156 27.1641 13.6905 27.1491C15.9998 27.1347 18.2666 26.5275 20.2739 25.3857C20.3065 25.3745 20.3381 25.3604 20.3681 25.3435C20.4004 25.3249 20.4308 25.3033 20.4588 25.2788C22.4522 24.1028 24.1147 22.4403 25.2907 20.4469C25.3092 20.4249 25.3259 20.4014 25.3406 20.3766C25.3534 20.3535 25.3647 20.3295 25.3744 20.3049ZM20.2809 24.0708L19.923 23.4507C19.8485 23.3214 19.7256 23.2271 19.5815 23.1885C19.4373 23.1499 19.2838 23.1701 19.1545 23.2446C19.0253 23.3192 18.931 23.4421 18.8924 23.5862C18.8537 23.7304 18.8739 23.8839 18.9485 24.0132L19.3064 24.6333C17.7055 25.4657 15.9418 25.9373 14.1391 26.015V25.2992C14.1391 25.15 14.0799 25.0069 13.9744 24.9014C13.8689 24.7959 13.7258 24.7367 13.5766 24.7367C13.4275 24.7367 13.2844 24.7959 13.1789 24.9014C13.0734 25.0069 13.0141 25.15 13.0141 25.2992V26.0143C11.2119 25.9333 9.44926 25.4591 7.84969 24.6249L8.20617 24.0082C8.24311 23.9443 8.26708 23.8736 8.27671 23.8004C8.28635 23.7271 8.28146 23.6527 8.26233 23.5813C8.2432 23.51 8.2102 23.4431 8.16522 23.3844C8.12023 23.3258 8.06415 23.2767 8.00016 23.2397C7.93617 23.2028 7.86553 23.1788 7.79228 23.1692C7.71903 23.1596 7.64459 23.1644 7.57323 23.1836C7.50187 23.2027 7.43497 23.2357 7.37636 23.2807C7.31775 23.3257 7.26858 23.3818 7.23164 23.4457L6.87656 24.0589C5.36011 23.0841 4.07136 21.7941 3.09797 20.2768L3.7132 19.9217C3.77719 19.8847 3.83328 19.8356 3.87826 19.777C3.92325 19.7183 3.95625 19.6515 3.97538 19.5801C3.99451 19.5087 3.99939 19.4343 3.98976 19.361C3.98012 19.2878 3.95615 19.2172 3.91922 19.1532C3.88229 19.0892 3.83311 19.0331 3.7745 18.9881C3.71589 18.9431 3.64899 18.9101 3.57763 18.891C3.50627 18.8719 3.43183 18.867 3.35858 18.8766C3.28533 18.8862 3.21469 18.9102 3.1507 18.9471L2.53477 19.3029C1.7016 17.7029 1.22882 15.94 1.14961 14.1378H1.86469C2.01387 14.1378 2.15695 14.0785 2.26244 13.973C2.36792 13.8675 2.42719 13.7245 2.42719 13.5753C2.42719 13.4261 2.36792 13.283 2.26244 13.1775C2.15695 13.072 2.01387 13.0128 1.86469 13.0128H1.14961C1.22882 11.2101 1.7016 9.4467 2.53477 7.84621L3.15563 8.2048C3.28486 8.2794 3.43843 8.2996 3.58255 8.26096C3.72668 8.22233 3.84955 8.12802 3.92414 7.99879C3.99873 7.86956 4.01893 7.71599 3.9803 7.57186C3.94166 7.42774 3.84736 7.30486 3.71813 7.23027L3.09867 6.87238C4.07292 5.35414 5.3629 4.06368 6.88078 3.08887L7.24008 3.71184C7.28952 3.79747 7.36066 3.86856 7.44633 3.91793C7.532 3.96731 7.62917 3.99323 7.72805 3.99309C7.82674 3.99298 7.92366 3.96692 8.0091 3.91751C8.09453 3.8681 8.16545 3.79708 8.21475 3.71159C8.26406 3.62609 8.29 3.52913 8.28997 3.43044C8.28995 3.33175 8.26395 3.2348 8.21461 3.14934L7.85461 2.52566C9.45567 1.69109 11.2202 1.21756 13.024 1.1384V1.86543C13.024 2.01461 13.0832 2.15769 13.1887 2.26318C13.2942 2.36867 13.4373 2.42793 13.5865 2.42793C13.7357 2.42793 13.8787 2.36867 13.9842 2.26318C14.0897 2.15769 14.149 2.01461 14.149 1.86543V1.14051C15.9532 1.21967 17.7182 1.69319 19.3198 2.52777L18.957 3.15637C18.92 3.22036 18.896 3.29099 18.8864 3.36424C18.8768 3.4375 18.8817 3.51193 18.9008 3.58329C18.9199 3.65465 18.9529 3.72155 18.9979 3.78016C19.0429 3.83877 19.099 3.88795 19.163 3.92488C19.227 3.96182 19.2976 3.98579 19.3708 3.99542C19.4441 4.00506 19.5185 4.00017 19.5899 3.98104C19.6613 3.96191 19.7282 3.92891 19.7868 3.88393C19.8454 3.83894 19.8945 3.78286 19.9315 3.71887L20.2936 3.09168C21.8122 4.06756 23.1026 5.35922 24.0771 6.87871L23.4499 7.24082C23.3207 7.31541 23.2264 7.43829 23.1877 7.58241C23.1491 7.72653 23.1693 7.8801 23.2439 8.00934C23.3185 8.13857 23.4414 8.23287 23.5855 8.27151C23.7296 8.31014 23.8832 8.28994 24.0124 8.21535L24.6403 7.85254C25.4747 9.45466 25.9479 11.2201 26.0269 13.0247H25.2984C25.1493 13.0247 25.0062 13.084 24.9007 13.1895C24.7952 13.295 24.7359 13.438 24.7359 13.5872C24.7359 13.7364 24.7952 13.8795 24.9007 13.985C25.0062 14.0905 25.1493 14.1497 25.2984 14.1497H26.0269C25.9459 15.9535 25.471 17.7178 24.6354 19.3184L24.011 18.9577C23.947 18.9208 23.8764 18.8968 23.8031 18.8872C23.7299 18.8775 23.6555 18.8824 23.5841 18.9015C23.5127 18.9207 23.4458 18.9537 23.3872 18.9987C23.3286 19.0436 23.2794 19.0997 23.2425 19.1637C23.2056 19.2277 23.1816 19.2983 23.172 19.3716C23.1623 19.4448 23.1672 19.5193 23.1863 19.5906C23.2055 19.662 23.2385 19.7289 23.2835 19.7875C23.3284 19.8461 23.3845 19.8953 23.4485 19.9322L24.0708 20.2915C23.0938 21.809 21.8012 23.0981 20.2809 24.0708ZM13.5865 3.25832C7.89469 3.25832 3.26461 7.8884 3.26461 13.5802C3.26461 19.272 7.89469 23.9021 13.5865 23.9021C19.2783 23.9021 23.9084 19.272 23.9084 13.5802C23.9084 7.8884 19.2769 3.25551 13.5865 3.25551V3.25832ZM13.5865 22.7771C8.51484 22.7771 4.38961 18.6511 4.38961 13.5802C4.38961 11.141 5.35856 8.80177 7.08331 7.07702C8.80806 5.35227 11.1473 4.38332 13.5865 4.38332C16.0256 4.38332 18.3649 5.35227 20.0897 7.07702C21.8144 8.80177 22.7834 11.141 22.7834 13.5802C22.7834 18.6483 18.6581 22.7743 13.5865 22.7743V22.7771ZM13.5865 11.7169C13.2178 11.7169 12.8574 11.8262 12.5509 12.0311C12.2444 12.2359 12.0055 12.527 11.8644 12.8676C11.7233 13.2082 11.6864 13.583 11.7583 13.9445C11.8302 14.3061 12.0078 14.6383 12.2684 14.8989C12.5291 15.1596 12.8613 15.3371 13.2228 15.4091C13.5844 15.481 13.9592 15.4441 14.2998 15.303C14.6404 15.1619 14.9315 14.923 15.1363 14.6165C15.3411 14.3099 15.4505 13.9496 15.4505 13.5809C15.4507 13.0862 15.2544 12.6117 14.9049 12.2617C14.5554 11.9116 14.0812 11.7147 13.5865 11.7141V11.7169ZM13.5865 14.3185C13.4403 14.3185 13.2975 14.2751 13.1759 14.1939C13.0544 14.1127 12.9597 13.9973 12.9038 13.8623C12.8478 13.7273 12.8332 13.5787 12.8617 13.4353C12.8902 13.292 12.9606 13.1603 13.0639 13.0569C13.1673 12.9536 13.299 12.8832 13.4423 12.8547C13.5857 12.8262 13.7343 12.8408 13.8693 12.8968C14.0043 12.9527 14.1197 13.0474 14.2009 13.1689C14.2821 13.2905 14.3255 13.4333 14.3255 13.5795C14.3247 13.7751 14.2466 13.9625 14.1081 14.1007C13.9697 14.2389 13.7821 14.3167 13.5865 14.3171V14.3185ZM20.8624 16.1628C21.454 14.494 21.454 12.6727 20.8624 11.0039C20.8118 10.8633 20.7563 10.7227 20.6972 10.5821C20.3897 9.8522 19.9711 9.17433 19.4562 8.57254C18.6554 7.63055 17.6397 6.89508 16.4948 6.42821C15.35 5.96134 14.1096 5.77678 12.8784 5.89012C12.6443 5.91121 12.4116 5.94285 12.1816 5.98504C10.4395 6.30902 8.86109 7.22057 7.70977 8.56762C7.09554 9.28369 6.61879 10.107 6.30352 10.9962C5.71006 12.668 5.71006 14.4931 6.30352 16.1649C6.34359 16.2767 6.38508 16.3871 6.43008 16.4961C6.74143 17.26 7.17428 17.9685 7.71188 18.5942C8.43501 19.4449 9.33455 20.1282 10.3481 20.5966C11.3617 21.0651 12.465 21.3074 13.5816 21.3068H13.7658C15.3297 21.2659 16.8445 20.7526 18.1112 19.8344C19.3778 18.9163 20.3369 17.6363 20.8624 16.1628ZM19.587 16.3168C19.5806 16.3315 19.5743 16.3463 19.5673 16.3604C19.5307 16.4398 19.492 16.5179 19.4527 16.5952L19.428 16.6423C19.3446 16.8017 19.2541 16.9575 19.1566 17.1099L19.1292 17.1535C19.0814 17.228 19.0322 17.3011 18.9809 17.3728C18.9731 17.3848 18.9647 17.3961 18.9563 17.4073C18.9345 17.4382 18.9113 17.4678 18.8859 17.498L15.1664 15.3507C15.0809 15.3013 14.984 15.2753 14.8853 15.2753C14.7866 15.2753 14.6897 15.3012 14.6042 15.3505C14.5187 15.3998 14.4476 15.4707 14.3982 15.5562C14.3488 15.6416 14.3228 15.7385 14.3227 15.8372V20.1396C14.2833 20.1446 14.2446 20.1495 14.2052 20.153H14.1778C14.085 20.1614 13.9915 20.1678 13.8966 20.1727H13.8677C13.6774 20.1811 13.4869 20.1811 13.2961 20.1727H13.268C13.1745 20.1685 13.0809 20.1621 12.9867 20.1544H12.9593C12.9199 20.1509 12.8813 20.1453 12.8426 20.1411V15.8358C12.8425 15.7371 12.8164 15.6402 12.767 15.5548C12.7176 15.4693 12.6466 15.3984 12.5611 15.3491C12.4756 15.2998 12.3786 15.2739 12.2799 15.2739C12.1812 15.2739 12.0843 15.2999 11.9988 15.3493L8.27227 17.5008C8.25047 17.4713 8.22727 17.4418 8.20195 17.4108L8.17664 17.3757C8.12531 17.3054 8.0768 17.2308 8.02899 17.157L8.00016 17.1127C7.95164 17.0368 7.90453 16.9594 7.85953 16.8821C7.81453 16.8047 7.77094 16.7253 7.72945 16.6458L7.70484 16.5994C7.66477 16.5214 7.62609 16.4433 7.58953 16.3639L7.57055 16.3217C7.55508 16.2893 7.54172 16.2563 7.52766 16.2232L11.2542 14.0703C11.3398 14.0209 11.4109 13.9499 11.4603 13.8644C11.5097 13.7788 11.5357 13.6818 11.5357 13.583C11.5357 13.4842 11.5097 13.3872 11.4603 13.3016C11.4109 13.2161 11.3398 13.1451 11.2542 13.0957L7.52766 10.9428C7.54172 10.9104 7.55508 10.8774 7.56984 10.845C7.57617 10.831 7.5832 10.8162 7.58953 10.8014C7.6268 10.7227 7.66477 10.6446 7.70484 10.5673L7.73016 10.5195C7.77094 10.4407 7.81383 10.3627 7.85813 10.2854C7.90313 10.208 7.95024 10.1314 7.99875 10.0554L8.02758 10.0104C8.07539 9.94012 8.12461 9.86418 8.17523 9.79246C8.18367 9.78051 8.19281 9.76855 8.20125 9.7559C8.22305 9.72566 8.24555 9.69613 8.26805 9.6666L11.9946 11.8182C12.0801 11.8675 12.1771 11.8935 12.2759 11.8935C12.3746 11.8935 12.4716 11.8675 12.5572 11.8181C12.6427 11.7687 12.7137 11.6977 12.763 11.6122C12.8124 11.5267 12.8384 11.4296 12.8384 11.3309V7.02777L12.9389 7.01652L12.9888 7.0116C13.0739 7.00457 13.1597 6.99894 13.2455 6.99473H13.308C13.3882 6.99473 13.4684 6.9898 13.5485 6.9891H13.5816C13.6673 6.9891 13.7531 6.9891 13.8389 6.99473H13.9029C13.9894 6.99894 14.0752 7.00457 14.1609 7.0123L14.2095 7.01723L14.3156 7.02918V11.3309C14.3156 11.4296 14.3416 11.5267 14.3909 11.6122C14.4403 11.6977 14.5113 11.7687 14.5968 11.8181C14.6823 11.8675 14.7793 11.8935 14.8781 11.8935C14.9768 11.8935 15.0739 11.8675 15.1594 11.8182L18.8789 9.67082C18.9014 9.70035 18.9239 9.72988 18.9457 9.76012C18.9541 9.77207 18.9633 9.78402 18.9717 9.79668C19.0223 9.86699 19.0716 9.9373 19.1187 10.0146L19.1475 10.0596C19.196 10.1356 19.2431 10.2122 19.2881 10.2903C19.3331 10.3683 19.376 10.4471 19.4182 10.5265L19.4421 10.5729C19.4824 10.6512 19.5211 10.73 19.5581 10.8092L19.5771 10.8507C19.5919 10.883 19.6052 10.9168 19.62 10.9498L15.8984 13.0979C15.8128 13.1472 15.7417 13.2182 15.6923 13.3038C15.6429 13.3893 15.6169 13.4863 15.6169 13.5851C15.6169 13.6839 15.6429 13.7809 15.6923 13.8665C15.7417 13.952 15.8128 14.023 15.8984 14.0724L19.6284 16.2176C19.6158 16.2542 19.6017 16.283 19.587 16.3154V16.3168ZM18.1294 18.3558C17.3718 19.0784 16.4537 19.6112 15.4505 19.9104V16.8103L18.1294 18.3558ZM11.7232 19.9104C10.7182 19.6143 9.79778 19.0842 9.03727 18.3636L11.7232 16.8167V19.9104ZM6.98203 13.5823C6.98205 13.059 7.04437 12.5376 7.16766 12.0291L9.85852 13.5823L7.16766 15.1355C7.04437 14.627 6.98205 14.1056 6.98203 13.5823ZM9.03797 8.80105C9.79821 8.08045 10.7185 7.55034 11.7232 7.25418V10.3571L9.03797 8.80105ZM15.4505 7.25418C16.4533 7.55319 17.3711 8.08545 18.1287 8.80738L15.4505 10.3543V7.25418ZM17.3145 13.5823L19.9962 12.0354C20.2423 13.052 20.2423 14.1126 19.9962 15.1292L17.3145 13.5823Z" fill="white"/>
</svg>
