<svg width="175" height="43" viewBox="0 0 175 43" fill="none" xmlns="http://www.w3.org/2000/svg">
<g clip-path="url(#clip0_83_17)">
<path d="M12.5703 1.42122C12.8255 0.577309 13.6031 0 14.4848 0H172.538C173.807 0 174.756 1.16726 174.496 2.40973L166.333 41.4097C166.139 42.3363 165.322 43 164.375 43H2.69408C1.35257 43 0.391435 41.7053 0.779653 40.4212L12.5703 1.42122Z" fill="#06233F"/>
<path d="M32.8409 30H26.125V12.5455H32.7727C34.5682 12.5455 36.1193 12.8949 37.4261 13.5938C38.7386 14.2869 39.75 15.2869 40.4602 16.5938C41.1761 17.8949 41.5341 19.4545 41.5341 21.2727C41.5341 23.0909 41.179 24.6534 40.4688 25.9602C39.7585 27.2614 38.7528 28.2614 37.4517 28.9602C36.1506 29.6534 34.6136 30 32.8409 30ZM30.8636 25.9773H32.6705C33.5341 25.9773 34.2699 25.8381 34.8778 25.5597C35.4915 25.2812 35.9574 24.8011 36.2756 24.1193C36.5994 23.4375 36.7614 22.4886 36.7614 21.2727C36.7614 20.0568 36.5966 19.108 36.267 18.4261C35.9432 17.7443 35.4659 17.2642 34.8352 16.9858C34.2102 16.7074 33.4432 16.5682 32.5341 16.5682H30.8636V25.9773ZM50.5475 30.2386C49.1497 30.2386 47.9452 29.9716 46.9338 29.4375C45.9282 28.8977 45.1526 28.125 44.6071 27.1193C44.0674 26.108 43.7975 24.8977 43.7975 23.4886C43.7975 22.1364 44.0702 20.9545 44.6157 19.9432C45.1611 18.9318 45.931 18.1449 46.9253 17.5824C47.9196 17.0199 49.0929 16.7386 50.4452 16.7386C51.4338 16.7386 52.3287 16.892 53.1299 17.1989C53.931 17.5057 54.6157 17.9517 55.1838 18.5369C55.752 19.1165 56.1895 19.821 56.4963 20.6506C56.8032 21.4801 56.9566 22.4148 56.9566 23.4545V24.5455H45.2634V21.9545H52.627C52.6213 21.5795 52.5247 21.25 52.3372 20.9659C52.1554 20.6761 51.9083 20.4517 51.5958 20.2926C51.2889 20.1278 50.9395 20.0455 50.5475 20.0455C50.1668 20.0455 49.8174 20.1278 49.4992 20.2926C49.181 20.4517 48.9253 20.6733 48.7321 20.9574C48.5446 21.2415 48.4452 21.5739 48.4338 21.9545V24.75C48.4338 25.1705 48.5219 25.5455 48.698 25.875C48.8742 26.2045 49.127 26.4631 49.4566 26.6506C49.7861 26.8381 50.1838 26.9318 50.6497 26.9318C50.9736 26.9318 51.2691 26.8864 51.5361 26.7955C51.8088 26.7045 52.0418 26.5739 52.235 26.4034C52.4282 26.2273 52.5702 26.017 52.6611 25.7727H56.9566C56.8088 26.6818 56.4594 27.4716 55.9083 28.142C55.3571 28.8068 54.627 29.3239 53.7179 29.6932C52.8145 30.0568 51.7577 30.2386 50.5475 30.2386ZM72.2214 16.9091L67.8236 30H62.3691L57.9714 16.9091H62.9145L65.0282 25.5682H65.1645L67.2782 16.9091H72.2214Z" fill="#E4E81C"/>
<path d="M90.2667 19.0909H85.4599C85.4258 18.6932 85.3349 18.3324 85.1872 18.0085C85.0451 17.6847 84.8462 17.4062 84.5906 17.1733C84.3406 16.9347 84.0366 16.7528 83.6786 16.6278C83.3207 16.4972 82.9144 16.4318 82.4599 16.4318C81.6644 16.4318 80.9911 16.625 80.44 17.0114C79.8945 17.3977 79.4798 17.9517 79.1957 18.6733C78.9173 19.3949 78.7781 20.2614 78.7781 21.2727C78.7781 22.3409 78.9201 23.2358 79.2042 23.9574C79.494 24.6733 79.9116 25.2131 80.457 25.5767C81.0025 25.9347 81.6587 26.1136 82.4258 26.1136C82.8633 26.1136 83.2553 26.0597 83.6019 25.9517C83.9485 25.8381 84.2497 25.6761 84.5053 25.4659C84.761 25.2557 84.9684 25.0028 85.1275 24.7074C85.2923 24.4062 85.4031 24.0682 85.4599 23.6932L90.2667 23.7273C90.2099 24.4659 90.0025 25.2187 89.6445 25.9858C89.2866 26.7472 88.7781 27.4517 88.119 28.0994C87.4656 28.7415 86.6559 29.2585 85.69 29.6506C84.7241 30.0426 83.6019 30.2386 82.3235 30.2386C80.7212 30.2386 79.2837 29.8949 78.011 29.2074C76.744 28.5199 75.7411 27.5085 75.0025 26.1733C74.2695 24.8381 73.9031 23.2045 73.9031 21.2727C73.9031 19.3295 74.2781 17.6932 75.0281 16.3636C75.7781 15.0284 76.7894 14.0199 78.0622 13.3381C79.3349 12.6506 80.7553 12.3068 82.3235 12.3068C83.4258 12.3068 84.44 12.4574 85.3661 12.7585C86.2923 13.0597 87.1048 13.5 87.8036 14.0795C88.5025 14.6534 89.065 15.3608 89.4911 16.2017C89.9173 17.0426 90.1758 18.0057 90.2667 19.0909ZM96.6125 30.2045C95.7772 30.2045 95.0386 30.0682 94.3966 29.7955C93.7602 29.517 93.2602 29.0966 92.8966 28.5341C92.5329 27.9716 92.3511 27.2557 92.3511 26.3864C92.3511 25.6705 92.4733 25.0597 92.7176 24.554C92.9619 24.0426 93.3028 23.625 93.7403 23.3011C94.1778 22.9773 94.6863 22.7301 95.2659 22.5597C95.8511 22.3892 96.4818 22.2784 97.1579 22.2273C97.8909 22.1705 98.4789 22.1023 98.9221 22.0227C99.371 21.9375 99.6949 21.821 99.8937 21.6733C100.093 21.5199 100.192 21.3182 100.192 21.0682V21.0341C100.192 20.6932 100.061 20.4318 99.8 20.25C99.5386 20.0682 99.2034 19.9773 98.7943 19.9773C98.3454 19.9773 97.9789 20.0767 97.6949 20.2756C97.4164 20.4687 97.2488 20.767 97.192 21.1705H92.8625C92.9193 20.375 93.1721 19.642 93.621 18.9716C94.0755 18.2955 94.7375 17.7557 95.6068 17.3523C96.4761 16.9432 97.5613 16.7386 98.8625 16.7386C99.8 16.7386 100.641 16.8494 101.385 17.071C102.13 17.2869 102.763 17.5909 103.286 17.983C103.808 18.3693 104.206 18.8239 104.479 19.3466C104.757 19.8636 104.897 20.4261 104.897 21.0341V30H100.499V28.1591H100.397C100.135 28.6477 99.817 29.0426 99.442 29.3438C99.0727 29.6449 98.6494 29.8636 98.1721 30C97.7005 30.1364 97.1807 30.2045 96.6125 30.2045ZM98.1466 27.2386C98.5045 27.2386 98.8397 27.1648 99.1522 27.017C99.4704 26.8693 99.7289 26.6562 99.9278 26.3778C100.127 26.0994 100.226 25.7614 100.226 25.3636V24.2727C100.101 24.3239 99.9676 24.3722 99.8255 24.4176C99.6892 24.4631 99.5414 24.5057 99.3824 24.5455C99.2289 24.5852 99.0642 24.6222 98.888 24.6562C98.7176 24.6903 98.5386 24.7216 98.3511 24.75C97.9875 24.8068 97.6892 24.9006 97.4562 25.0312C97.2289 25.1562 97.0585 25.3125 96.9449 25.5C96.8369 25.6818 96.7829 25.8864 96.7829 26.1136C96.7829 26.4773 96.9108 26.7557 97.1664 26.9489C97.4221 27.142 97.7488 27.2386 98.1466 27.2386ZM107.624 30V16.9091H112.193V19.3977H112.329C112.568 18.4773 112.945 17.804 113.463 17.3778C113.985 16.9517 114.596 16.7386 115.295 16.7386C115.499 16.7386 115.701 16.7557 115.9 16.7898C116.105 16.8182 116.301 16.8608 116.488 16.9176V20.9318C116.255 20.8523 115.968 20.7926 115.627 20.7528C115.286 20.7131 114.994 20.6932 114.749 20.6932C114.289 20.6932 113.874 20.7983 113.505 21.0085C113.141 21.2131 112.855 21.5028 112.644 21.8778C112.434 22.2472 112.329 22.6818 112.329 23.1818V30H107.624ZM118.511 30V16.9091H123.079V19.3977H123.215C123.454 18.4773 123.832 17.804 124.349 17.3778C124.871 16.9517 125.482 16.7386 126.181 16.7386C126.386 16.7386 126.587 16.7557 126.786 16.7898C126.991 16.8182 127.187 16.8608 127.374 16.9176V20.9318C127.141 20.8523 126.854 20.7926 126.514 20.7528C126.173 20.7131 125.88 20.6932 125.636 20.6932C125.175 20.6932 124.761 20.7983 124.391 21.0085C124.028 21.2131 123.741 21.5028 123.531 21.8778C123.32 22.2472 123.215 22.6818 123.215 23.1818V30H118.511ZM134.954 30.2386C133.533 30.2386 132.317 29.9574 131.306 29.3949C130.295 28.8267 129.519 28.0369 128.979 27.0256C128.44 26.0085 128.17 24.8295 128.17 23.4886C128.17 22.1477 128.44 20.9716 128.979 19.9602C129.519 18.9432 130.295 18.1534 131.306 17.5909C132.317 17.0227 133.533 16.7386 134.954 16.7386C136.374 16.7386 137.59 17.0227 138.601 17.5909C139.613 18.1534 140.388 18.9432 140.928 19.9602C141.468 20.9716 141.738 22.1477 141.738 23.4886C141.738 24.8295 141.468 26.0085 140.928 27.0256C140.388 28.0369 139.613 28.8267 138.601 29.3949C137.59 29.9574 136.374 30.2386 134.954 30.2386ZM134.988 26.7614C135.386 26.7614 135.729 26.6278 136.019 26.3608C136.309 26.0937 136.533 25.7131 136.692 25.2188C136.851 24.7244 136.931 24.1364 136.931 23.4545C136.931 22.767 136.851 22.179 136.692 21.6903C136.533 21.196 136.309 20.8153 136.019 20.5483C135.729 20.2812 135.386 20.1477 134.988 20.1477C134.567 20.1477 134.207 20.2812 133.905 20.5483C133.604 20.8153 133.374 21.196 133.215 21.6903C133.056 22.179 132.976 22.767 132.976 23.4545C132.976 24.1364 133.056 24.7244 133.215 25.2188C133.374 25.7131 133.604 26.0937 133.905 26.3608C134.207 26.6278 134.567 26.7614 134.988 26.7614ZM156.093 21.1705H151.763C151.741 20.9034 151.647 20.6733 151.482 20.4801C151.317 20.2869 151.104 20.1392 150.843 20.0369C150.587 19.929 150.303 19.875 149.991 19.875C149.587 19.875 149.241 19.9489 148.951 20.0966C148.661 20.2443 148.519 20.4545 148.525 20.7273C148.519 20.9205 148.601 21.0994 148.772 21.2642C148.948 21.429 149.286 21.5568 149.786 21.6477L152.445 22.125C153.786 22.3693 154.783 22.7812 155.437 23.3608C156.096 23.9347 156.428 24.7045 156.434 25.6705C156.428 26.6023 156.15 27.4119 155.599 28.0994C155.053 28.7812 154.306 29.3097 153.357 29.6847C152.414 30.054 151.337 30.2386 150.127 30.2386C148.127 30.2386 146.562 29.8295 145.431 29.0114C144.306 28.1932 143.678 27.1136 143.547 25.7727H148.218C148.28 26.1875 148.485 26.5085 148.831 26.7358C149.184 26.9574 149.627 27.0682 150.161 27.0682C150.593 27.0682 150.948 26.9943 151.226 26.8466C151.51 26.6989 151.655 26.4886 151.661 26.2159C151.655 25.9659 151.53 25.767 151.286 25.6193C151.047 25.4716 150.672 25.3523 150.161 25.2614L147.843 24.8523C146.508 24.6193 145.508 24.1761 144.843 23.5227C144.178 22.8693 143.849 22.0284 143.854 21C143.849 20.0909 144.087 19.321 144.57 18.6903C145.059 18.054 145.755 17.571 146.658 17.2415C147.567 16.9062 148.644 16.7386 149.888 16.7386C151.78 16.7386 153.272 17.1307 154.363 17.9148C155.459 18.6989 156.036 19.7841 156.093 21.1705Z" fill="white"/>
</g>
<defs>
<clipPath id="clip0_83_17">
<rect width="175" height="43" fill="white"/>
</clipPath>
</defs>
</svg>
