<svg width="217" height="57" viewBox="0 0 217 57" fill="none" xmlns="http://www.w3.org/2000/svg">
<g style="mix-blend-mode:lighten">
<path d="M15.0908 3.63933C15.6996 1.48638 17.6647 0 19.9021 0H210.926C214.073 0 216.438 2.87237 215.833 5.96071L206.631 52.9607C206.171 55.3072 204.115 57 201.724 57H6.61014C3.29384 57 0.896365 53.8305 1.79884 50.6393L15.0908 3.63933Z" fill="#00315F"/>
</g>
<path d="M126.364 26.7841H121.557C121.523 26.3864 121.432 26.0256 121.284 25.7017C121.142 25.3779 120.943 25.0994 120.688 24.8665C120.438 24.6279 120.133 24.446 119.775 24.321C119.418 24.1904 119.011 24.125 118.557 24.125C117.761 24.125 117.088 24.3182 116.537 24.7046C115.991 25.0909 115.577 25.6449 115.293 26.3665C115.014 27.0881 114.875 27.9546 114.875 28.9659C114.875 30.0341 115.017 30.929 115.301 31.6506C115.591 32.3665 116.009 32.9063 116.554 33.2699C117.099 33.6279 117.756 33.8068 118.523 33.8068C118.96 33.8068 119.352 33.7529 119.699 33.6449C120.045 33.5313 120.347 33.3693 120.602 33.1591C120.858 32.9489 121.065 32.696 121.224 32.4006C121.389 32.0994 121.5 31.7614 121.557 31.3864L126.364 31.4205C126.307 32.1591 126.099 32.9119 125.741 33.679C125.384 34.4404 124.875 35.1449 124.216 35.7926C123.563 36.4347 122.753 36.9517 121.787 37.3438C120.821 37.7358 119.699 37.9318 118.42 37.9318C116.818 37.9318 115.381 37.5881 114.108 36.9006C112.841 36.2131 111.838 35.2017 111.099 33.8665C110.366 32.5313 110 30.8977 110 28.9659C110 27.0227 110.375 25.3864 111.125 24.0568C111.875 22.7216 112.886 21.7131 114.159 21.0313C115.432 20.3438 116.852 20 118.42 20C119.523 20 120.537 20.1506 121.463 20.4517C122.389 20.7529 123.202 21.1932 123.9 21.7727C124.599 22.3466 125.162 23.054 125.588 23.8949C126.014 24.7358 126.273 25.6989 126.364 26.7841ZM132.709 37.8977C131.874 37.8977 131.135 37.7614 130.493 37.4887C129.857 37.2102 129.357 36.7898 128.993 36.2273C128.63 35.6648 128.448 34.9489 128.448 34.0796C128.448 33.3637 128.57 32.7529 128.814 32.2472C129.059 31.7358 129.4 31.3182 129.837 30.9943C130.275 30.6705 130.783 30.4233 131.363 30.2529C131.948 30.0824 132.579 29.9716 133.255 29.9205C133.988 29.8637 134.576 29.7955 135.019 29.7159C135.468 29.6307 135.792 29.5142 135.991 29.3665C136.19 29.2131 136.289 29.0114 136.289 28.7614V28.7273C136.289 28.3864 136.158 28.125 135.897 27.9432C135.636 27.7614 135.3 27.6705 134.891 27.6705C134.442 27.6705 134.076 27.7699 133.792 27.9688C133.513 28.1619 133.346 28.4602 133.289 28.8637H128.959C129.016 28.0682 129.269 27.3352 129.718 26.6648C130.172 25.9887 130.834 25.4489 131.704 25.0455C132.573 24.6364 133.658 24.4318 134.959 24.4318C135.897 24.4318 136.738 24.5426 137.482 24.7642C138.227 24.9801 138.86 25.2841 139.383 25.6762C139.905 26.0625 140.303 26.5171 140.576 27.0398C140.854 27.5568 140.994 28.1193 140.994 28.7273V37.6932H136.596V35.8523H136.494C136.232 36.3409 135.914 36.7358 135.539 37.037C135.17 37.3381 134.746 37.5568 134.269 37.6932C133.797 37.8296 133.278 37.8977 132.709 37.8977ZM134.243 34.9318C134.601 34.9318 134.937 34.858 135.249 34.7102C135.567 34.5625 135.826 34.3494 136.025 34.071C136.224 33.7926 136.323 33.4546 136.323 33.0568V31.9659C136.198 32.0171 136.065 32.0654 135.922 32.1108C135.786 32.1563 135.638 32.1989 135.479 32.2387C135.326 32.2784 135.161 32.3154 134.985 32.3494C134.815 32.3835 134.635 32.4148 134.448 32.4432C134.084 32.5 133.786 32.5938 133.553 32.7244C133.326 32.8494 133.155 33.0057 133.042 33.1932C132.934 33.375 132.88 33.5796 132.88 33.8068C132.88 34.1705 133.008 34.4489 133.263 34.6421C133.519 34.8352 133.846 34.9318 134.243 34.9318ZM143.721 37.6932V24.6023H148.29V27.0909H148.426C148.665 26.1705 149.042 25.4972 149.56 25.071C150.082 24.6449 150.693 24.4318 151.392 24.4318C151.596 24.4318 151.798 24.4489 151.997 24.483C152.202 24.5114 152.398 24.554 152.585 24.6108V28.625C152.352 28.5455 152.065 28.4858 151.724 28.446C151.383 28.4063 151.091 28.3864 150.846 28.3864C150.386 28.3864 149.971 28.4915 149.602 28.7017C149.238 28.9063 148.952 29.196 148.741 29.571C148.531 29.9404 148.426 30.375 148.426 30.875V37.6932H143.721ZM154.608 37.6932V24.6023H159.176V27.0909H159.312C159.551 26.1705 159.929 25.4972 160.446 25.071C160.968 24.6449 161.579 24.4318 162.278 24.4318C162.483 24.4318 162.684 24.4489 162.883 24.483C163.088 24.5114 163.284 24.554 163.471 24.6108V28.625C163.238 28.5455 162.951 28.4858 162.611 28.446C162.27 28.4063 161.977 28.3864 161.733 28.3864C161.272 28.3864 160.858 28.4915 160.488 28.7017C160.125 28.9063 159.838 29.196 159.628 29.571C159.417 29.9404 159.312 30.375 159.312 30.875V37.6932H154.608ZM171.051 37.9318C169.63 37.9318 168.414 37.6506 167.403 37.0881C166.392 36.5199 165.616 35.7301 165.076 34.7188C164.537 33.7017 164.267 32.5227 164.267 31.1818C164.267 29.8409 164.537 28.6648 165.076 27.6534C165.616 26.6364 166.392 25.8466 167.403 25.2841C168.414 24.7159 169.63 24.4318 171.051 24.4318C172.471 24.4318 173.687 24.7159 174.698 25.2841C175.71 25.8466 176.485 26.6364 177.025 27.6534C177.565 28.6648 177.835 29.8409 177.835 31.1818C177.835 32.5227 177.565 33.7017 177.025 34.7188C176.485 35.7301 175.71 36.5199 174.698 37.0881C173.687 37.6506 172.471 37.9318 171.051 37.9318ZM171.085 34.4546C171.483 34.4546 171.826 34.321 172.116 34.054C172.406 33.7869 172.63 33.4063 172.789 32.912C172.948 32.4176 173.028 31.8296 173.028 31.1477C173.028 30.4602 172.948 29.8722 172.789 29.3835C172.63 28.8892 172.406 28.5085 172.116 28.2415C171.826 27.9744 171.483 27.8409 171.085 27.8409C170.664 27.8409 170.304 27.9744 170.002 28.2415C169.701 28.5085 169.471 28.8892 169.312 29.3835C169.153 29.8722 169.073 30.4602 169.073 31.1477C169.073 31.8296 169.153 32.4176 169.312 32.912C169.471 33.4063 169.701 33.7869 170.002 34.054C170.304 34.321 170.664 34.4546 171.085 34.4546ZM192.19 28.8637H187.86C187.838 28.5966 187.744 28.3665 187.579 28.1733C187.414 27.9801 187.201 27.8324 186.94 27.7301C186.684 27.6222 186.4 27.5682 186.088 27.5682C185.684 27.5682 185.338 27.6421 185.048 27.7898C184.758 27.9375 184.616 28.1477 184.622 28.4205C184.616 28.6137 184.698 28.7926 184.869 28.9574C185.045 29.1222 185.383 29.25 185.883 29.3409L188.542 29.8182C189.883 30.0625 190.88 30.4744 191.534 31.054C192.193 31.6279 192.525 32.3977 192.531 33.3637C192.525 34.2955 192.247 35.1051 191.696 35.7926C191.15 36.4744 190.403 37.0029 189.454 37.3779C188.511 37.7472 187.434 37.9318 186.224 37.9318C184.224 37.9318 182.659 37.5227 181.528 36.7046C180.403 35.8864 179.775 34.8068 179.644 33.4659H184.315C184.377 33.8807 184.582 34.2017 184.928 34.429C185.281 34.6506 185.724 34.7614 186.258 34.7614C186.69 34.7614 187.045 34.6875 187.323 34.5398C187.607 34.3921 187.752 34.1818 187.758 33.9091C187.752 33.6591 187.627 33.4602 187.383 33.3125C187.144 33.1648 186.769 33.0455 186.258 32.9546L183.94 32.5455C182.605 32.3125 181.605 31.8693 180.94 31.2159C180.275 30.5625 179.946 29.7216 179.951 28.6932C179.946 27.7841 180.184 27.0142 180.667 26.3835C181.156 25.7472 181.852 25.2642 182.755 24.9347C183.664 24.5994 184.741 24.4318 185.985 24.4318C187.877 24.4318 189.369 24.8239 190.46 25.608C191.556 26.3921 192.133 27.4773 192.19 28.8637Z" fill="white"/>
<path d="M68.7159 37.4545H62V20H68.6477C70.4432 20 71.9943 20.3494 73.3011 21.0483C74.6136 21.7414 75.625 22.7414 76.3352 24.0483C77.0511 25.3494 77.4091 26.909 77.4091 28.7272C77.4091 30.5454 77.054 32.1079 76.3438 33.4147C75.6335 34.7159 74.6278 35.7159 73.3267 36.4147C72.0256 37.1079 70.4886 37.4545 68.7159 37.4545ZM66.7386 33.4318H68.5455C69.4091 33.4318 70.1449 33.2926 70.7528 33.0142C71.3665 32.7357 71.8324 32.2556 72.1506 31.5738C72.4744 30.892 72.6364 29.9431 72.6364 28.7272C72.6364 27.5113 72.4716 26.5625 72.142 25.8806C71.8182 25.1988 71.3409 24.7187 70.7102 24.4403C70.0852 24.1619 69.3182 24.0227 68.4091 24.0227H66.7386V33.4318ZM86.4225 37.6931C85.0247 37.6931 83.8202 37.4261 82.8088 36.892C81.8032 36.3522 81.0276 35.5795 80.4821 34.5738C79.9424 33.5625 79.6725 32.3522 79.6725 30.9431C79.6725 29.5909 79.9452 28.409 80.4907 27.3977C81.0361 26.3863 81.806 25.5994 82.8003 25.0369C83.7946 24.4744 84.9679 24.1931 86.3202 24.1931C87.3088 24.1931 88.2037 24.3465 89.0049 24.6534C89.806 24.9602 90.4907 25.4062 91.0588 25.9914C91.627 26.571 92.0645 27.2755 92.3713 28.1051C92.6782 28.9346 92.8316 29.8693 92.8316 30.909V32H81.1384V29.409H88.502C88.4963 29.034 88.3997 28.7045 88.2122 28.4204C88.0304 28.1306 87.7833 27.9062 87.4708 27.7471C87.1639 27.5823 86.8145 27.5 86.4225 27.5C86.0418 27.5 85.6924 27.5823 85.3742 27.7471C85.056 27.9062 84.8003 28.1278 84.6071 28.4119C84.4196 28.696 84.3202 29.0284 84.3088 29.409V32.2045C84.3088 32.625 84.3969 33 84.573 33.3295C84.7492 33.659 85.002 33.9176 85.3316 34.1051C85.6611 34.2926 86.0588 34.3863 86.5247 34.3863C86.8486 34.3863 87.1441 34.3409 87.4111 34.25C87.6838 34.159 87.9168 34.0284 88.11 33.8579C88.3032 33.6818 88.4452 33.4715 88.5361 33.2272H92.8316C92.6838 34.1363 92.3344 34.9261 91.7833 35.5965C91.2321 36.2613 90.502 36.7784 89.5929 37.1477C88.6895 37.5113 87.6327 37.6931 86.4225 37.6931ZM108.096 24.3636L103.699 37.4545H98.2441L93.8464 24.3636H98.7895L100.903 33.0227H101.039L103.153 24.3636H108.096Z" fill="url(#paint0_linear_6_13)"/>
<path fill-rule="evenodd" clip-rule="evenodd" d="M44.3333 31.6667C44.3333 31.2246 44.5089 30.8007 44.8215 30.4882C45.134 30.1756 45.558 30 46 30C46.442 30 46.866 30.1756 47.1785 30.4882C47.4911 30.8007 47.6667 31.2246 47.6667 31.6667C47.6667 32.1087 47.4911 32.5326 47.1785 32.8452C46.866 33.1577 46.442 33.3333 46 33.3333C45.558 33.3333 45.134 33.1577 44.8215 32.8452C44.5089 32.5326 44.3333 32.1087 44.3333 31.6667ZM33.6667 35.6667H40.3333V34H33.6667V35.6667ZM28 33C27.558 33 27.134 32.8244 26.8215 32.5118C26.5089 32.1993 26.3333 31.7754 26.3333 31.3333C26.3333 30.8913 26.5089 30.4674 26.8215 30.1548C27.134 29.8423 27.558 29.6667 28 29.6667C28.442 29.6667 28.866 29.8423 29.1785 30.1548C29.4911 30.4674 29.6667 30.8913 29.6667 31.3333C29.6667 31.7754 29.4911 32.1993 29.1785 32.5118C28.866 32.8244 28.442 33 28 33ZM31.2667 21.1267C31.36 20.8533 31.6133 20.6667 31.8933 20.6667H42.1C42.3867 20.6667 42.64 20.8533 42.7533 21.1867L44.82 26.6667H29.18L31.2667 21.1267ZM49 26.198V25.6667C49 25.4015 48.8946 25.1471 48.7071 24.9596C48.5196 24.772 48.2652 24.6667 48 24.6667H46.9133L45.2667 20.3C45.0491 19.6328 44.6265 19.0513 44.0591 18.6383C43.4917 18.2253 42.8084 18.0019 42.1067 18H31.8867C30.4467 18.0067 29.18 18.9333 28.7533 20.2467L27.0867 24.6667H26C25.7348 24.6667 25.4804 24.772 25.2929 24.9596C25.1054 25.1471 25 25.4015 25 25.6667V26.198C25.0001 26.4255 25.0777 26.6462 25.2201 26.8237C25.3625 27.0011 25.5612 27.1247 25.7833 27.174L26.08 27.24L25.5667 28.4067C25.1992 29.236 25.0085 30.1329 25.0067 31.04L25 38.92C25 39.5133 25.4867 40 26.08 40H27.92C28.5133 40 29 39.5133 29 38.92V37.6667H28V36.6667H46V37.6667H45V38.92C45 39.5133 45.4867 40 46.08 40H47.92C48.5133 40 49 39.5133 49 38.92V31.0533C49 30.14 48.8067 29.2333 48.4333 28.4L47.92 27.24L48.2167 27.174C48.4388 27.1247 48.6375 27.0011 48.7799 26.8237C48.9223 26.6462 48.9999 26.4255 49 26.198Z" fill="white"/>
<defs>
<linearGradient id="paint0_linear_6_13" x1="85" y1="18" x2="87.5" y2="43" gradientUnits="userSpaceOnUse">
<stop stop-color="#62A2B0"/>
<stop offset="0.55" stop-color="#00D1FF"/>
<stop offset="0.925" stop-color="#007893"/>
</linearGradient>
</defs>
</svg>
