<svg width="217" height="43" viewBox="0 0 217 43" fill="none" xmlns="http://www.w3.org/2000/svg">
<path d="M16.12 0H217L205.84 43H0L16.12 0Z" fill="#06233F"/>
<g clip-path="url(#clip0_102_30)">
<path d="M51.3744 28.3049C52.5455 26.262 53.1617 23.9483 53.1617 21.5936V21.5774C53.1648 19.2034 52.5412 16.8706 51.354 14.8147C51.3514 14.8084 51.3483 14.8023 51.3448 14.7964C51.3399 14.7873 51.3336 14.7789 51.328 14.7697C50.1392 12.7287 48.4421 11.0303 46.4019 9.84012C46.3927 9.83379 46.3836 9.82746 46.3738 9.82184L46.3548 9.81199C44.3045 8.62991 41.9806 8.00521 39.614 8.00003C37.2474 7.99485 34.9207 8.60937 32.8653 9.78246C32.8412 9.79242 32.8177 9.80393 32.795 9.81691C32.7704 9.83128 32.7469 9.8475 32.7247 9.86543C30.7295 11.0405 29.0655 12.7031 27.8886 14.6973C27.8637 14.7252 27.8418 14.7556 27.8232 14.788C27.8053 14.8188 27.7905 14.8513 27.7789 14.885C26.6367 16.8908 26.0281 19.156 26.0113 21.4642C25.9962 21.5389 25.9962 21.6159 26.0113 21.6906C26.0285 23.9905 26.6336 26.2478 27.7691 28.2479C27.7935 28.3325 27.8384 28.4098 27.8998 28.4729C29.0672 30.4441 30.7113 32.0902 32.6811 33.2598C32.7132 33.2911 32.7491 33.3183 32.788 33.3407C32.8253 33.362 32.8649 33.379 32.9061 33.3913C34.9065 34.5262 37.1636 35.1313 39.4634 35.1491C39.5384 35.1641 39.6156 35.1641 39.6905 35.1491C41.9998 35.1347 44.2666 34.5275 46.2739 33.3857C46.3065 33.3745 46.3381 33.3604 46.3681 33.3435C46.4004 33.3249 46.4308 33.3033 46.4588 33.2788C48.4522 32.1028 50.1147 30.4403 51.2907 28.4469C51.3092 28.4249 51.3259 28.4014 51.3406 28.3766C51.3534 28.3535 51.3647 28.3295 51.3744 28.3049ZM46.2809 32.0708L45.923 31.4507C45.8485 31.3214 45.7256 31.2271 45.5815 31.1885C45.4373 31.1499 45.2838 31.1701 45.1545 31.2446C45.0253 31.3192 44.931 31.4421 44.8924 31.5862C44.8537 31.7304 44.8739 31.8839 44.9485 32.0132L45.3064 32.6333C43.7055 33.4657 41.9418 33.9373 40.1391 34.015V33.2992C40.1391 33.15 40.0799 33.0069 39.9744 32.9014C39.8689 32.7959 39.7258 32.7367 39.5766 32.7367C39.4275 32.7367 39.2844 32.7959 39.1789 32.9014C39.0734 33.0069 39.0141 33.15 39.0141 33.2992V34.0143C37.2119 33.9333 35.4493 33.4591 33.8497 32.6249L34.2062 32.0082C34.2431 31.9443 34.2671 31.8736 34.2767 31.8004C34.2863 31.7271 34.2815 31.6527 34.2623 31.5813C34.2432 31.51 34.2102 31.4431 34.1652 31.3844C34.1202 31.3258 34.0641 31.2767 34.0002 31.2397C33.9362 31.2028 33.8655 31.1788 33.7923 31.1692C33.719 31.1596 33.6446 31.1644 33.5732 31.1836C33.5019 31.2027 33.435 31.2357 33.3764 31.2807C33.3178 31.3257 33.2686 31.3818 33.2316 31.4457L32.8766 32.0589C31.3601 31.0841 30.0714 29.7941 29.098 28.2768L29.7132 27.9217C29.7772 27.8847 29.8333 27.8356 29.8783 27.777C29.9232 27.7183 29.9562 27.6515 29.9754 27.5801C29.9945 27.5087 29.9994 27.4343 29.9898 27.361C29.9801 27.2878 29.9562 27.2172 29.9192 27.1532C29.8823 27.0892 29.8331 27.0331 29.7745 26.9881C29.7159 26.9431 29.649 26.9101 29.5776 26.891C29.5063 26.8719 29.4318 26.867 29.3586 26.8766C29.2853 26.8862 29.2147 26.9102 29.1507 26.9471L28.5348 27.3029C27.7016 25.7029 27.2288 23.94 27.1496 22.1378H27.8647C28.0139 22.1378 28.1569 22.0785 28.2624 21.973C28.3679 21.8675 28.4272 21.7245 28.4272 21.5753C28.4272 21.4261 28.3679 21.283 28.2624 21.1775C28.1569 21.072 28.0139 21.0128 27.8647 21.0128H27.1496C27.2288 19.2101 27.7016 17.4467 28.5348 15.8462L29.1556 16.2048C29.2849 16.2794 29.4384 16.2996 29.5826 16.261C29.7267 16.2223 29.8495 16.128 29.9241 15.9988C29.9987 15.8696 30.0189 15.716 29.9803 15.5719C29.9417 15.4277 29.8474 15.3049 29.7181 15.2303L29.0987 14.8724C30.0729 13.3541 31.3629 12.0637 32.8808 11.0889L33.2401 11.7118C33.2895 11.7975 33.3607 11.8686 33.4463 11.9179C33.532 11.9673 33.6292 11.9932 33.728 11.9931C33.8267 11.993 33.9237 11.9669 34.0091 11.9175C34.0945 11.8681 34.1655 11.7971 34.2148 11.7116C34.2641 11.6261 34.29 11.5291 34.29 11.4304C34.2899 11.3318 34.264 11.2348 34.2146 11.1493L33.8546 10.5257C35.4557 9.69109 37.2202 9.21756 39.024 9.1384V9.86543C39.024 10.0146 39.0832 10.1577 39.1887 10.2632C39.2942 10.3687 39.4373 10.4279 39.5865 10.4279C39.7357 10.4279 39.8787 10.3687 39.9842 10.2632C40.0897 10.1577 40.149 10.0146 40.149 9.86543V9.14051C41.9532 9.21967 43.7182 9.69319 45.3198 10.5278L44.957 11.1564C44.92 11.2204 44.896 11.291 44.8864 11.3642C44.8768 11.4375 44.8817 11.5119 44.9008 11.5833C44.9199 11.6547 44.9529 11.7216 44.9979 11.7802C45.0429 11.8388 45.099 11.8879 45.163 11.9249C45.227 11.9618 45.2976 11.9858 45.3708 11.9954C45.4441 12.0051 45.5185 12.0002 45.5899 11.981C45.6613 11.9619 45.7282 11.9289 45.7868 11.8839C45.8454 11.8389 45.8945 11.7829 45.9315 11.7189L46.2936 11.0917C47.8122 12.0676 49.1026 13.3592 50.0771 14.8787L49.4499 15.2408C49.3207 15.3154 49.2264 15.4383 49.1877 15.5824C49.1491 15.7265 49.1693 15.8801 49.2439 16.0093C49.3185 16.1386 49.4414 16.2329 49.5855 16.2715C49.7296 16.3101 49.8832 16.2899 50.0124 16.2154L50.6403 15.8525C51.4747 17.4547 51.9479 19.2201 52.0269 21.0247H51.2984C51.1493 21.0247 51.0062 21.084 50.9007 21.1895C50.7952 21.295 50.7359 21.438 50.7359 21.5872C50.7359 21.7364 50.7952 21.8795 50.9007 21.985C51.0062 22.0905 51.1493 22.1497 51.2984 22.1497H52.0269C51.9459 23.9535 51.471 25.7178 50.6354 27.3184L50.011 26.9577C49.947 26.9208 49.8764 26.8968 49.8031 26.8872C49.7299 26.8775 49.6555 26.8824 49.5841 26.9015C49.5127 26.9207 49.4458 26.9537 49.3872 26.9987C49.3286 27.0436 49.2794 27.0997 49.2425 27.1637C49.2056 27.2277 49.1816 27.2983 49.172 27.3716C49.1623 27.4448 49.1672 27.5193 49.1863 27.5906C49.2055 27.662 49.2385 27.7289 49.2835 27.7875C49.3284 27.8461 49.3845 27.8953 49.4485 27.9322L50.0708 28.2915C49.0938 29.809 47.8012 31.0981 46.2809 32.0708ZM39.5865 11.2583C33.8947 11.2583 29.2646 15.8884 29.2646 21.5802C29.2646 27.272 33.8947 31.9021 39.5865 31.9021C45.2783 31.9021 49.9084 27.272 49.9084 21.5802C49.9084 15.8884 45.2769 11.2555 39.5865 11.2555V11.2583ZM39.5865 30.7771C34.5148 30.7771 30.3896 26.6511 30.3896 21.5802C30.3896 19.141 31.3586 16.8018 33.0833 15.077C34.8081 13.3523 37.1473 12.3833 39.5865 12.3833C42.0256 12.3833 44.3649 13.3523 46.0897 15.077C47.8144 16.8018 48.7834 19.141 48.7834 21.5802C48.7834 26.6483 44.6581 30.7743 39.5865 30.7743V30.7771ZM39.5865 19.7169C39.2178 19.7169 38.8574 19.8262 38.5509 20.0311C38.2444 20.2359 38.0055 20.527 37.8644 20.8676C37.7233 21.2082 37.6864 21.583 37.7583 21.9445C37.8302 22.3061 38.0078 22.6383 38.2684 22.8989C38.5291 23.1596 38.8613 23.3371 39.2228 23.4091C39.5844 23.481 39.9592 23.4441 40.2998 23.303C40.6404 23.1619 40.9315 22.923 41.1363 22.6165C41.3411 22.3099 41.4505 21.9496 41.4505 21.5809C41.4507 21.0862 41.2544 20.6117 40.9049 20.2617C40.5554 19.9116 40.0812 19.7147 39.5865 19.7141V19.7169ZM39.5865 22.3185C39.4403 22.3185 39.2975 22.2751 39.1759 22.1939C39.0544 22.1127 38.9597 21.9973 38.9038 21.8623C38.8478 21.7273 38.8332 21.5787 38.8617 21.4353C38.8902 21.292 38.9606 21.1603 39.0639 21.0569C39.1673 20.9536 39.299 20.8832 39.4423 20.8547C39.5857 20.8262 39.7343 20.8408 39.8693 20.8968C40.0043 20.9527 40.1197 21.0474 40.2009 21.1689C40.2821 21.2905 40.3255 21.4333 40.3255 21.5795C40.3247 21.7751 40.2466 21.9625 40.1081 22.1007C39.9697 22.2389 39.7821 22.3167 39.5865 22.3171V22.3185ZM46.8624 24.1628C47.454 22.494 47.454 20.6727 46.8624 19.0039C46.8118 18.8633 46.7563 18.7227 46.6972 18.5821C46.3897 17.8522 45.9711 17.1743 45.4562 16.5725C44.6554 15.6306 43.6397 14.8951 42.4948 14.4282C41.35 13.9613 40.1096 13.7768 38.8784 13.8901C38.6443 13.9112 38.4116 13.9429 38.1816 13.985C36.4395 14.309 34.8611 15.2206 33.7098 16.5676C33.0955 17.2837 32.6188 18.107 32.3035 18.9962C31.7101 20.668 31.7101 22.4931 32.3035 24.1649C32.3436 24.2767 32.3851 24.3871 32.4301 24.4961C32.7414 25.26 33.1743 25.9685 33.7119 26.5942C34.435 27.4449 35.3345 28.1282 36.3481 28.5966C37.3617 29.0651 38.465 29.3074 39.5816 29.3068H39.7658C41.3297 29.2659 42.8445 28.7526 44.1112 27.8344C45.3778 26.9163 46.3369 25.6363 46.8624 24.1628ZM45.587 24.3168C45.5806 24.3315 45.5743 24.3463 45.5673 24.3604C45.5307 24.4398 45.492 24.5179 45.4527 24.5952L45.428 24.6423C45.3446 24.8017 45.2541 24.9575 45.1566 25.1099L45.1292 25.1535C45.0814 25.228 45.0322 25.3011 44.9809 25.3728C44.9731 25.3848 44.9647 25.3961 44.9563 25.4073C44.9345 25.4382 44.9113 25.4678 44.8859 25.498L41.1664 23.3507C41.0809 23.3013 40.984 23.2753 40.8853 23.2753C40.7866 23.2753 40.6897 23.3012 40.6042 23.3505C40.5187 23.3998 40.4476 23.4707 40.3982 23.5562C40.3488 23.6416 40.3228 23.7385 40.3227 23.8372V28.1396C40.2833 28.1446 40.2446 28.1495 40.2052 28.153H40.1778C40.085 28.1614 39.9915 28.1678 39.8966 28.1727H39.8677C39.6774 28.1811 39.4869 28.1811 39.2961 28.1727H39.268C39.1745 28.1685 39.0809 28.1621 38.9867 28.1544H38.9593C38.9199 28.1509 38.8813 28.1453 38.8426 28.1411V23.8358C38.8425 23.7371 38.8164 23.6402 38.767 23.5548C38.7176 23.4693 38.6466 23.3984 38.5611 23.3491C38.4756 23.2998 38.3786 23.2739 38.2799 23.2739C38.1812 23.2739 38.0843 23.2999 37.9988 23.3493L34.2723 25.5008C34.2505 25.4713 34.2273 25.4418 34.202 25.4108L34.1766 25.3757C34.1253 25.3054 34.0768 25.2308 34.029 25.157L34.0002 25.1127C33.9516 25.0368 33.9045 24.9594 33.8595 24.8821C33.8145 24.8047 33.7709 24.7253 33.7295 24.6458L33.7048 24.5994C33.6648 24.5214 33.6261 24.4433 33.5895 24.3639L33.5705 24.3217C33.5551 24.2893 33.5417 24.2563 33.5277 24.2232L37.2542 22.0703C37.3398 22.0209 37.4109 21.9499 37.4603 21.8644C37.5097 21.7788 37.5357 21.6818 37.5357 21.583C37.5357 21.4842 37.5097 21.3872 37.4603 21.3016C37.4109 21.2161 37.3398 21.1451 37.2542 21.0957L33.5277 18.9428C33.5417 18.9104 33.5551 18.8774 33.5698 18.845C33.5762 18.831 33.5832 18.8162 33.5895 18.8014C33.6268 18.7227 33.6648 18.6446 33.7048 18.5673L33.7302 18.5195C33.7709 18.4407 33.8138 18.3627 33.8581 18.2854C33.9031 18.208 33.9502 18.1314 33.9988 18.0554L34.0276 18.0104C34.0754 17.9401 34.1246 17.8642 34.1752 17.7925C34.1837 17.7805 34.1928 17.7686 34.2013 17.7559C34.223 17.7257 34.2455 17.6961 34.268 17.6666L37.9946 19.8182C38.0801 19.8675 38.1771 19.8935 38.2759 19.8935C38.3746 19.8935 38.4716 19.8675 38.5572 19.8181C38.6427 19.7687 38.7137 19.6977 38.763 19.6122C38.8124 19.5267 38.8384 19.4296 38.8384 19.3309V15.0278L38.9389 15.0165L38.9888 15.0116C39.0739 15.0046 39.1597 14.9989 39.2455 14.9947H39.308C39.3882 14.9947 39.4684 14.9898 39.5485 14.9891H39.5816C39.6673 14.9891 39.7531 14.9891 39.8389 14.9947H39.9029C39.9894 14.9989 40.0752 15.0046 40.1609 15.0123L40.2095 15.0172L40.3156 15.0292V19.3309C40.3156 19.4296 40.3416 19.5267 40.3909 19.6122C40.4403 19.6977 40.5113 19.7687 40.5968 19.8181C40.6823 19.8675 40.7793 19.8935 40.8781 19.8935C40.9768 19.8935 41.0739 19.8675 41.1594 19.8182L44.8789 17.6708C44.9014 17.7003 44.9239 17.7299 44.9457 17.7601C44.9541 17.7721 44.9633 17.784 44.9717 17.7967C45.0223 17.867 45.0716 17.9373 45.1187 18.0146L45.1475 18.0596C45.196 18.1356 45.2431 18.2122 45.2881 18.2903C45.3331 18.3683 45.376 18.4471 45.4182 18.5265L45.4421 18.5729C45.4824 18.6512 45.5211 18.73 45.5581 18.8092L45.5771 18.8507C45.5919 18.883 45.6052 18.9168 45.62 18.9498L41.8984 21.0979C41.8128 21.1472 41.7417 21.2182 41.6923 21.3038C41.6429 21.3893 41.6169 21.4863 41.6169 21.5851C41.6169 21.6839 41.6429 21.7809 41.6923 21.8665C41.7417 21.952 41.8128 22.023 41.8984 22.0724L45.6284 24.2176C45.6158 24.2542 45.6017 24.283 45.587 24.3154V24.3168ZM44.1294 26.3558C43.3718 27.0784 42.4537 27.6112 41.4505 27.9104V24.8103L44.1294 26.3558ZM37.7232 27.9104C36.7182 27.6143 35.7978 27.0842 35.0373 26.3636L37.7232 24.8167V27.9104ZM32.982 21.5823C32.9821 21.059 33.0444 20.5376 33.1677 20.0291L35.8585 21.5823L33.1677 23.1355C33.0444 22.627 32.9821 22.1056 32.982 21.5823ZM35.038 16.8011C35.7982 16.0805 36.7185 15.5503 37.7232 15.2542V18.3571L35.038 16.8011ZM41.4505 15.2542C42.4533 15.5532 43.3711 16.0854 44.1287 16.8074L41.4505 18.3543V15.2542ZM43.3145 21.5823L45.9962 20.0354C46.2423 21.052 46.2423 22.1126 45.9962 23.1292L43.3145 21.5823Z" fill="white"/>
</g>
<path d="M126.364 19.7841H121.557C121.523 19.3864 121.432 19.0256 121.284 18.7017C121.142 18.3779 120.943 18.0994 120.688 17.8665C120.438 17.6279 120.133 17.446 119.775 17.321C119.418 17.1904 119.011 17.125 118.557 17.125C117.761 17.125 117.088 17.3182 116.537 17.7046C115.991 18.0909 115.577 18.6449 115.293 19.3665C115.014 20.0881 114.875 20.9546 114.875 21.9659C114.875 23.0341 115.017 23.929 115.301 24.6506C115.591 25.3665 116.009 25.9063 116.554 26.2699C117.099 26.6279 117.756 26.8068 118.523 26.8068C118.96 26.8068 119.352 26.7529 119.699 26.6449C120.045 26.5313 120.347 26.3693 120.602 26.1591C120.858 25.9489 121.065 25.696 121.224 25.4006C121.389 25.0994 121.5 24.7614 121.557 24.3864L126.364 24.4205C126.307 25.1591 126.099 25.9119 125.741 26.679C125.384 27.4404 124.875 28.1449 124.216 28.7926C123.563 29.4347 122.753 29.9517 121.787 30.3438C120.821 30.7358 119.699 30.9318 118.42 30.9318C116.818 30.9318 115.381 30.5881 114.108 29.9006C112.841 29.2131 111.838 28.2017 111.099 26.8665C110.366 25.5313 110 23.8977 110 21.9659C110 20.0227 110.375 18.3864 111.125 17.0568C111.875 15.7216 112.886 14.7131 114.159 14.0313C115.432 13.3438 116.852 13 118.42 13C119.523 13 120.537 13.1506 121.463 13.4517C122.389 13.7529 123.202 14.1932 123.9 14.7727C124.599 15.3466 125.162 16.054 125.588 16.8949C126.014 17.7358 126.273 18.6989 126.364 19.7841ZM132.709 30.8977C131.874 30.8977 131.135 30.7614 130.493 30.4887C129.857 30.2102 129.357 29.7898 128.993 29.2273C128.63 28.6648 128.448 27.9489 128.448 27.0796C128.448 26.3637 128.57 25.7529 128.814 25.2472C129.059 24.7358 129.4 24.3182 129.837 23.9943C130.275 23.6705 130.783 23.4233 131.363 23.2529C131.948 23.0824 132.579 22.9716 133.255 22.9205C133.988 22.8637 134.576 22.7955 135.019 22.7159C135.468 22.6307 135.792 22.5142 135.991 22.3665C136.19 22.2131 136.289 22.0114 136.289 21.7614V21.7273C136.289 21.3864 136.158 21.125 135.897 20.9432C135.636 20.7614 135.3 20.6705 134.891 20.6705C134.442 20.6705 134.076 20.7699 133.792 20.9688C133.513 21.1619 133.346 21.4602 133.289 21.8637H128.959C129.016 21.0682 129.269 20.3352 129.718 19.6648C130.172 18.9887 130.834 18.4489 131.704 18.0455C132.573 17.6364 133.658 17.4318 134.959 17.4318C135.897 17.4318 136.738 17.5426 137.482 17.7642C138.227 17.9801 138.86 18.2841 139.383 18.6762C139.905 19.0625 140.303 19.5171 140.576 20.0398C140.854 20.5568 140.994 21.1193 140.994 21.7273V30.6932H136.596V28.8523H136.494C136.232 29.3409 135.914 29.7358 135.539 30.037C135.17 30.3381 134.746 30.5568 134.269 30.6932C133.797 30.8296 133.278 30.8977 132.709 30.8977ZM134.243 27.9318C134.601 27.9318 134.937 27.858 135.249 27.7102C135.567 27.5625 135.826 27.3494 136.025 27.071C136.224 26.7926 136.323 26.4546 136.323 26.0568V24.9659C136.198 25.0171 136.065 25.0654 135.922 25.1108C135.786 25.1563 135.638 25.1989 135.479 25.2387C135.326 25.2784 135.161 25.3154 134.985 25.3494C134.815 25.3835 134.635 25.4148 134.448 25.4432C134.084 25.5 133.786 25.5938 133.553 25.7244C133.326 25.8494 133.155 26.0057 133.042 26.1932C132.934 26.375 132.88 26.5796 132.88 26.8068C132.88 27.1705 133.008 27.4489 133.263 27.6421C133.519 27.8352 133.846 27.9318 134.243 27.9318ZM143.721 30.6932V17.6023H148.29V20.0909H148.426C148.665 19.1705 149.042 18.4972 149.56 18.071C150.082 17.6449 150.693 17.4318 151.392 17.4318C151.596 17.4318 151.798 17.4489 151.997 17.483C152.202 17.5114 152.398 17.554 152.585 17.6108V21.625C152.352 21.5455 152.065 21.4858 151.724 21.446C151.383 21.4063 151.091 21.3864 150.846 21.3864C150.386 21.3864 149.971 21.4915 149.602 21.7017C149.238 21.9063 148.952 22.196 148.741 22.571C148.531 22.9404 148.426 23.375 148.426 23.875V30.6932H143.721ZM154.608 30.6932V17.6023H159.176V20.0909H159.312C159.551 19.1705 159.929 18.4972 160.446 18.071C160.968 17.6449 161.579 17.4318 162.278 17.4318C162.483 17.4318 162.684 17.4489 162.883 17.483C163.088 17.5114 163.284 17.554 163.471 17.6108V21.625C163.238 21.5455 162.951 21.4858 162.611 21.446C162.27 21.4063 161.977 21.3864 161.733 21.3864C161.272 21.3864 160.858 21.4915 160.488 21.7017C160.125 21.9063 159.838 22.196 159.628 22.571C159.417 22.9404 159.312 23.375 159.312 23.875V30.6932H154.608ZM171.051 30.9318C169.63 30.9318 168.414 30.6506 167.403 30.0881C166.392 29.5199 165.616 28.7301 165.076 27.7188C164.537 26.7017 164.267 25.5227 164.267 24.1818C164.267 22.8409 164.537 21.6648 165.076 20.6534C165.616 19.6364 166.392 18.8466 167.403 18.2841C168.414 17.7159 169.63 17.4318 171.051 17.4318C172.471 17.4318 173.687 17.7159 174.698 18.2841C175.71 18.8466 176.485 19.6364 177.025 20.6534C177.565 21.6648 177.835 22.8409 177.835 24.1818C177.835 25.5227 177.565 26.7017 177.025 27.7188C176.485 28.7301 175.71 29.5199 174.698 30.0881C173.687 30.6506 172.471 30.9318 171.051 30.9318ZM171.085 27.4546C171.483 27.4546 171.826 27.321 172.116 27.054C172.406 26.7869 172.63 26.4063 172.789 25.912C172.948 25.4176 173.028 24.8296 173.028 24.1477C173.028 23.4602 172.948 22.8722 172.789 22.3835C172.63 21.8892 172.406 21.5085 172.116 21.2415C171.826 20.9744 171.483 20.8409 171.085 20.8409C170.664 20.8409 170.304 20.9744 170.002 21.2415C169.701 21.5085 169.471 21.8892 169.312 22.3835C169.153 22.8722 169.073 23.4602 169.073 24.1477C169.073 24.8296 169.153 25.4176 169.312 25.912C169.471 26.4063 169.701 26.7869 170.002 27.054C170.304 27.321 170.664 27.4546 171.085 27.4546ZM192.19 21.8637H187.86C187.838 21.5966 187.744 21.3665 187.579 21.1733C187.414 20.9801 187.201 20.8324 186.94 20.7301C186.684 20.6222 186.4 20.5682 186.088 20.5682C185.684 20.5682 185.338 20.6421 185.048 20.7898C184.758 20.9375 184.616 21.1477 184.622 21.4205C184.616 21.6137 184.698 21.7926 184.869 21.9574C185.045 22.1222 185.383 22.25 185.883 22.3409L188.542 22.8182C189.883 23.0625 190.88 23.4744 191.534 24.054C192.193 24.6279 192.525 25.3977 192.531 26.3637C192.525 27.2955 192.247 28.1051 191.696 28.7926C191.15 29.4744 190.403 30.0029 189.454 30.3779C188.511 30.7472 187.434 30.9318 186.224 30.9318C184.224 30.9318 182.659 30.5227 181.528 29.7046C180.403 28.8864 179.775 27.8068 179.644 26.4659H184.315C184.377 26.8807 184.582 27.2017 184.928 27.429C185.281 27.6506 185.724 27.7614 186.258 27.7614C186.69 27.7614 187.045 27.6875 187.323 27.5398C187.607 27.3921 187.752 27.1818 187.758 26.9091C187.752 26.6591 187.627 26.4602 187.383 26.3125C187.144 26.1648 186.769 26.0455 186.258 25.9546L183.94 25.5455C182.605 25.3125 181.605 24.8693 180.94 24.2159C180.275 23.5625 179.946 22.7216 179.951 21.6932C179.946 20.7841 180.184 20.0142 180.667 19.3835C181.156 18.7472 181.852 18.2642 182.755 17.9347C183.664 17.5994 184.741 17.4318 185.985 17.4318C187.877 17.4318 189.369 17.8239 190.46 18.608C191.556 19.3921 192.133 20.4773 192.19 21.8637Z" fill="white"/>
<path d="M68.7159 30.4545H62V13H68.6477C70.4432 13 71.9943 13.3494 73.3011 14.0483C74.6136 14.7414 75.625 15.7414 76.3352 17.0483C77.0511 18.3494 77.4091 19.909 77.4091 21.7272C77.4091 23.5454 77.054 25.1079 76.3438 26.4147C75.6335 27.7159 74.6278 28.7159 73.3267 29.4147C72.0256 30.1079 70.4886 30.4545 68.7159 30.4545ZM66.7386 26.4318H68.5455C69.4091 26.4318 70.1449 26.2926 70.7528 26.0142C71.3665 25.7357 71.8324 25.2556 72.1506 24.5738C72.4744 23.892 72.6364 22.9431 72.6364 21.7272C72.6364 20.5113 72.4716 19.5625 72.142 18.8806C71.8182 18.1988 71.3409 17.7187 70.7102 17.4403C70.0852 17.1619 69.3182 17.0227 68.4091 17.0227H66.7386V26.4318ZM86.4225 30.6931C85.0247 30.6931 83.8202 30.4261 82.8088 29.892C81.8032 29.3522 81.0276 28.5795 80.4821 27.5738C79.9424 26.5625 79.6725 25.3522 79.6725 23.9431C79.6725 22.5909 79.9452 21.409 80.4907 20.3977C81.0361 19.3863 81.806 18.5994 82.8003 18.0369C83.7946 17.4744 84.9679 17.1931 86.3202 17.1931C87.3088 17.1931 88.2037 17.3465 89.0049 17.6534C89.806 17.9602 90.4907 18.4062 91.0588 18.9914C91.627 19.571 92.0645 20.2755 92.3713 21.1051C92.6782 21.9346 92.8316 22.8693 92.8316 23.909V25H81.1384V22.409H88.502C88.4963 22.034 88.3997 21.7045 88.2122 21.4204C88.0304 21.1306 87.7833 20.9062 87.4708 20.7471C87.1639 20.5823 86.8145 20.5 86.4225 20.5C86.0418 20.5 85.6924 20.5823 85.3742 20.7471C85.056 20.9062 84.8003 21.1278 84.6071 21.4119C84.4196 21.696 84.3202 22.0284 84.3088 22.409V25.2045C84.3088 25.625 84.3969 26 84.573 26.3295C84.7492 26.659 85.002 26.9176 85.3316 27.1051C85.6611 27.2926 86.0588 27.3863 86.5247 27.3863C86.8486 27.3863 87.1441 27.3409 87.4111 27.25C87.6838 27.159 87.9168 27.0284 88.11 26.8579C88.3032 26.6818 88.4452 26.4715 88.5361 26.2272H92.8316C92.6838 27.1363 92.3344 27.9261 91.7833 28.5965C91.2321 29.2613 90.502 29.7784 89.5929 30.1477C88.6895 30.5113 87.6327 30.6931 86.4225 30.6931ZM108.096 17.3636L103.699 30.4545H98.2441L93.8464 17.3636H98.7895L100.903 26.0227H101.039L103.153 17.3636H108.096Z" fill="#E4E81C"/>
<defs>
<clipPath id="clip0_102_30">
<rect width="36" height="36" fill="white" transform="translate(17 4)"/>
</clipPath>
</defs>
</svg>
